<?xml version="1.0" encoding="UTF-8"?>
<svg id="Layer_2" data-name="Layer 2" xmlns="http://www.w3.org/2000/svg" viewBox="0 0 694.52 695.35">
  <defs>
    <style>
      .cls-1 {
        fill: #3e404c;
      }

      .cls-2 {
        fill: #1e698d;
      }
    </style>
  </defs>
  <g id="Layer_1-2" data-name="Layer 1">
    <g>
      <path class="cls-2" d="M334.78,295.52c101.89-13.84,106.78,144.18,5.79,136.86-80.27-5.82-82.79-126.41-5.79-136.86Z"/>
      <path class="cls-1" d="M314.64,1.21c295.23-23.56,486.95,303.41,314.85,547.37-157.86,223.77-500.75,184.35-603.57-68.41C-61.56,265.14,81.8,19.79,314.64,1.21ZM585.93,544.36c146.54-180.36,54.54-449.47-172.1-498.38C187.11-2.93-7.82,195.92,45.91,421.62c24.85,104.36,104.35,187.75,205.92,220.57l10.43-85.24-128.28-137.01c-8.14-14.23,8.59-31,23.35-24.9,0,0,194.25,102.73,194.25,102.73l190.69-102.73c14.97-4.99,26.9,13.67,18.78,26.49l-127.3,135.61,10.92,83.5c54.21-17.73,105.33-52.08,141.25-96.29Z"/>
      <path class="cls-1" d="M602.8,333.32c-1.62-29.48-8.24-58.16-19.7-85.25-12.89-30.47-31.35-57.85-54.87-81.36-23.52-23.52-50.89-41.98-81.36-54.86-31.53-13.33-65.04-20.1-99.61-20.1s-68.08,6.76-99.61,20.1c-30.47,12.89-57.85,31.35-81.36,54.86-23.52,23.52-41.98,50.89-54.86,81.36-11.46,27.09-18.09,55.77-19.7,85.25-.29,5.21,1.61,10.37,5.2,14.16,3.6,3.8,8.66,5.98,13.89,5.98,10.14,0,18.52-7.94,19.08-18.08,1.38-25.05,7.01-49.42,16.74-72.41,10.96-25.92,26.67-49.21,46.69-69.23,20.02-20.02,43.31-35.73,69.23-46.69,26.79-11.33,55.29-17.08,84.72-17.08s57.93,5.75,84.72,17.08c25.92,10.96,49.21,26.67,69.23,46.69s35.73,43.31,46.69,69.23c9.73,23,15.36,47.36,16.74,72.41.56,10.14,8.94,18.09,19.08,18.09,5.23,0,10.29-2.18,13.89-5.98,3.59-3.79,5.48-8.95,5.2-14.16Z"/>
      <path class="cls-1" d="M506.8,335.2c-1.02-18.52-5.18-36.55-12.39-53.58-8.1-19.15-19.7-36.35-34.47-51.12-14.77-14.77-31.98-26.37-51.12-34.47-19.81-8.38-40.87-12.63-62.59-12.63s-42.78,4.25-62.59,12.63c-19.15,8.1-36.35,19.7-51.12,34.47-14.77,14.77-26.37,31.98-34.47,51.12-7.2,17.03-11.37,35.06-12.39,53.58-.28,5.18,1.6,10.32,5.17,14.09,3.57,3.78,8.61,5.94,13.81,5.94,10.09,0,18.42-7.9,18.97-17.97.78-14.13,3.95-27.87,9.44-40.83,6.18-14.62,15.05-27.76,26.34-39.05,11.3-11.3,24.43-20.16,39.05-26.34,15.1-6.39,31.18-9.63,47.79-9.63s32.68,3.24,47.79,9.63c14.62,6.18,27.76,15.04,39.05,26.34,11.29,11.29,20.16,24.43,26.34,39.05,5.48,12.97,8.66,26.71,9.44,40.83.55,10.08,8.89,17.98,18.97,17.98,5.2,0,10.23-2.17,13.81-5.94,3.57-3.77,5.46-8.91,5.17-14.09Z"/>
    </g>
  </g>
</svg>