<?xml version="1.0" encoding="UTF-8"?>
<svg id="Layer_1" data-name="Layer 1" xmlns="http://www.w3.org/2000/svg" viewBox="0 0 3201.26 1108.13">
  <defs>
    <style>
      .cls-1 {
        fill: #3e404c;
      }

      .cls-2 {
        fill: #fbf8f5;
      }

      .cls-3 {
        fill: #1e698d;
      }
    </style>
  </defs>
  <rect class="cls-2" x="-1487.63" y="-1.24" width="1487.63" height="781.83"/>
  <g>
    <path class="cls-3" d="M816.08,478.69c119.41-16.22,125.13,168.97,6.79,160.39-94.07-6.82-97.03-148.14-6.79-160.39Z"/>
    <path class="cls-1" d="M792.48,133.79c345.99-27.62,570.67,355.58,368.98,641.48-185,262.24-586.84,216.04-707.33-80.17-102.51-252,65.49-539.53,338.36-561.31ZM1110.42,770.32c171.73-211.36,63.92-526.75-201.69-584.05-265.7-57.33-494.14,175.71-431.17,440.21,29.12,122.3,122.29,220.03,241.32,258.49l12.23-99.9-150.34-160.56c-9.54-16.68,10.07-36.33,27.37-29.17,0,0,227.65,120.39,227.65,120.39l223.48-120.39c17.54-5.85,31.53,16.02,22.01,31.05l-149.19,158.93,12.8,97.86c63.53-20.78,123.43-61.03,165.53-112.85Z"/>
    <path class="cls-1" d="M1130.18,522.99c-1.89-34.54-9.66-68.16-23.09-99.91-15.1-35.71-36.74-67.79-64.3-95.35-27.56-27.56-59.64-49.19-95.35-64.3-36.95-15.63-76.22-23.55-116.73-23.55s-79.79,7.92-116.73,23.55c-35.71,15.1-67.79,36.74-95.35,64.3-27.56,27.56-49.19,59.64-64.3,95.35-13.43,31.75-21.2,65.36-23.09,99.91-.33,6.1,1.89,12.15,6.09,16.6,4.21,4.45,10.15,7,16.27,7,11.89,0,21.71-9.31,22.36-21.19,1.62-29.36,8.22-57.91,19.62-84.86,12.85-30.37,31.26-57.67,54.72-81.13,23.46-23.46,50.75-41.87,81.13-54.72,31.39-13.28,64.8-20.01,99.28-20.01s67.89,6.73,99.28,20.01c30.37,12.85,57.67,31.26,81.13,54.72,23.46,23.46,41.87,50.75,54.71,81.13,11.4,26.95,18,55.5,19.62,84.86.65,11.89,10.48,21.19,22.36,21.19,6.13,0,12.06-2.55,16.27-7,4.21-4.44,6.43-10.49,6.09-16.6Z"/>
    <path class="cls-1" d="M1017.68,525.2c-1.19-21.71-6.07-42.84-14.51-62.79-9.49-22.44-23.08-42.6-40.4-59.91-17.31-17.31-37.47-30.91-59.91-40.4-23.22-9.82-47.9-14.8-73.35-14.8s-50.13,4.98-73.35,14.8c-22.44,9.49-42.6,23.08-59.91,40.4-17.31,17.31-30.91,37.47-40.4,59.91-8.44,19.96-13.33,41.08-14.52,62.79-.33,6.07,1.88,12.09,6.06,16.51,4.19,4.43,10.09,6.96,16.18,6.96,11.82,0,21.59-9.25,22.24-21.06.91-16.56,4.63-32.66,11.06-47.85,7.25-17.13,17.63-32.53,30.87-45.77,13.24-13.24,28.64-23.62,45.77-30.87,17.7-7.49,36.54-11.28,56-11.28s38.3,3.8,56,11.28c17.13,7.24,32.53,17.63,45.77,30.87,13.24,13.24,23.62,28.63,30.87,45.77,6.43,15.2,10.15,31.3,11.06,47.85.65,11.81,10.42,21.07,22.24,21.07,6.09,0,11.99-2.54,16.18-6.96,4.19-4.42,6.39-10.44,6.06-16.51Z"/>
  </g>
  <path class="cls-3" d="M2003.42,190.74h-148.1c-5.82,0-10.74,4.44-10.74,9.7s5.12,9.7,10.74,9.7h62.62v141.91c0,5.08,5.12,9.7,10.74,9.7,6.02,0,10.74-4.26,10.74-9.7v-141.91h64.01c5.82,0,10.74-4.44,10.74-9.7s-4.72-9.7-10.74-9.7Z"/>
  <path class="cls-3" d="M2199.62,190.74c-5.82,0-10.74,4.44-10.74,9.7v60.64h-111.75v-60.64c0-5.44-4.72-9.7-10.74-9.7s-10.74,4.44-10.74,9.7v151.62c0,5.08,5.12,9.7,10.74,9.7,6.02,0,10.74-4.26,10.74-9.7v-71.58h111.75v71.58c0,5.08,5.12,9.7,10.74,9.7,6.02,0,10.74-4.26,10.74-9.7v-151.62c0-5.44-4.72-9.7-10.74-9.7Z"/>
  <path class="cls-3" d="M2381.29,342.35h-85.81v-62.19h70.23c5.82,0,10.74-4.44,10.74-9.7s-4.72-9.7-10.74-9.7h-70.23v-50.62h85.11c5.82,0,10.74-4.44,10.74-9.7s-4.72-9.7-10.74-9.7h-96.89c-5.26,0-9.7,4.44-9.7,9.7v151.62c0,5.08,5.12,9.7,10.74,9.7h96.54c5.82,0,10.74-4.44,10.74-9.7s-4.72-9.7-10.74-9.7Z"/>
  <path class="cls-3" d="M1702.85,515.45c-22.64-4.73-45.79-12.05-45.79-30.36,0-6.2,3.41-12.08,9.6-16.54,6.72-4.85,16.21-7.52,26.73-7.52,20.58,0,32.14,2.69,43.15,6.74,6.24,2.32,7.3,2.64,8.75,2.64,5.62,0,10.74-4.62,10.74-9.7,0-3.93-2.69-7.44-6.85-8.94-16.95-6.12-29.99-10.14-55.8-10.14-21.94,0-35.42,7.21-42.88,13.26-9.48,7.7-14.92,18.25-14.92,28.95,0,12.67,4.07,22.2,12.82,29.99,9.86,8.78,26.22,15.63,50.02,20.92,33.57,7.51,47.9,17.9,47.9,34.74s-18.06,28.44-46.01,28.44c-19.36,0-37.29-4.13-53.3-12.26l-.09-.04c-1.67-.75-3.38-1.14-5.09-1.14-6.42,0-10.74,5.02-10.74,9.7,0,3.37,2.05,6.54,5.48,8.48l.1.05c19.39,9.7,40.8,14.62,63.64,14.62,49.76,0,67.49-24.71,67.49-47.84,0-28.01-20.03-44.68-64.94-54.04Z"/>
  <path class="cls-3" d="M1835.26,443.5c-5.82,0-10.74,4.44-10.74,9.7v151.62c0,5.08,5.12,9.7,10.74,9.7,6.02,0,10.74-4.26,10.74-9.7v-151.62c0-5.44-4.72-9.7-10.74-9.7Z"/>
  <path class="cls-3" d="M2056.72,443.5c-5.82,0-10.74,4.44-10.74,9.7v125.42c-18.72-22.04-41.36-48.08-61.5-71.22-20.74-23.84-40.32-46.35-51.69-60-2.23-2.8-5.32-3.9-11.03-3.9s-10.39,4.53-10.39,9.7v151.62c0,5.08,5.12,9.7,10.74,9.7,6.02,0,10.74-4.26,10.74-9.7v-125.48c9.99,11.58,21.93,25.3,34.5,39.72,27.08,31.09,57.78,66.32,78.67,91.55,2.14,2.71,5.55,3.92,11.04,3.92s10.39-4.35,10.39-9.7v-151.62c0-5.44-4.72-9.7-10.74-9.7Z"/>
  <path class="cls-3" d="M2272.65,525.09h-52.94c-5.82,0-10.74,4.44-10.74,9.7s5.12,9.7,10.74,9.7h46.01v38.94c-15.29,7.7-30.84,14.5-51.55,14.5-22.51,0-41.49-6.82-54.88-19.72-12.58-12.12-19.51-29.2-19.51-48.1,0-20.5,7.36-38.06,21.28-50.8,13.54-12.39,32.77-19.21,54.14-19.21,16.5,0,31.77,2.52,46.66,7.69l.1.03c1.12.34,2.39.72,3.77.72,7.05,0,10.74-4.88,10.74-9.7,0-4.11-2.5-7.37-6.85-8.94l-.08-.03c-19.49-6.26-36.75-9.17-54.33-9.17-27.26,0-51.9,8.75-69.39,24.63-18,16.34-27.51,38.75-27.51,64.79,0,24.25,8.93,46.19,25.13,61.78,17.31,16.65,41.76,25.45,70.73,25.45s43.8-3.47,61.79-13.76c1.47-.83,11.23-7.49,11.23-12.51v-56.27c0-8.55-7.35-9.7-14.55-9.7Z"/>
  <path class="cls-3" d="M2452.24,595.11h-85.81v-62.19h70.23c5.82,0,10.74-4.44,10.74-9.7s-4.72-9.7-10.74-9.7h-70.23v-50.62h85.11c5.82,0,10.74-4.44,10.74-9.7s-4.72-9.7-10.74-9.7h-96.89c-5.26,0-9.7,4.44-9.7,9.7v151.62c0,5.08,5.12,9.7,10.74,9.7h96.54c5.82,0,10.74-4.44,10.74-9.7s-4.72-9.7-10.74-9.7Z"/>
  <path class="cls-3" d="M2602.97,548.57c25.3-7.53,40.3-26.27,40.3-50.67,0-15.42-6.59-29.28-18.55-39.03-12.34-10.06-29.5-15.37-49.63-15.37h-50.87c-6.02,0-10.74,4.26-10.74,9.7v151.62c0,5.08,5.12,9.7,10.74,9.7,6.02,0,10.74-4.26,10.74-9.7v-52.51h43.32l55.76,58.72c2.05,2.22,5.03,3.49,8.18,3.49,6.15,0,10.74-5.12,10.74-9.7,0-2.45-.96-4.74-2.63-6.28l-47.36-49.96ZM2621.79,497.9c0,9.99-4.07,18.56-11.76,24.78-8.28,6.69-20.36,10.23-34.94,10.23h-40.13v-70h40.13c27.93,0,46.7,14.07,46.7,35Z"/>
  <path class="cls-3" d="M1731.43,847.89c-1.8,0-3.52.42-4.84,1.18-11.92,5.36-26.39,8.19-41.87,8.19-23.43,0-43.12-6.75-56.94-19.52-13.03-12.04-20.21-29.19-20.21-48.31s7.95-37.9,22.39-50.79c13.9-12.4,32.61-19.23,52.69-19.23,15.98,0,31.65,2.96,41.93,7.91l.05.02c1.67.75,3.38,1.14,5.09,1.14,6.42,0,10.74-5.02,10.74-9.7,0-3.37-2.05-6.54-5.48-8.48l-.09-.05c-12.97-6.51-32-10.24-52.23-10.24-25.69,0-49.72,8.74-67.64,24.61-18.65,16.51-28.92,39.52-28.92,64.81s9.2,46.52,25.89,62.04c17.73,16.48,42.88,25.19,72.74,25.19,19.13,0,36.92-3.63,51.43-10.5,3.66-1.5,6.02-4.86,6.02-8.57,0-5.53-4.62-9.7-10.74-9.7Z"/>
  <path class="cls-3" d="M1902.03,854.46h-85.81v-62.19h70.23c5.82,0,10.74-4.44,10.74-9.7s-4.72-9.7-10.74-9.7h-70.23v-50.62h85.11c5.82,0,10.74-4.44,10.74-9.7s-4.72-9.7-10.74-9.7h-96.89c-5.26,0-9.7,4.44-9.7,9.7v151.62c0,5.08,5.12,9.7,10.74,9.7h96.54c5.82,0,10.74-4.44,10.74-9.7s-4.72-9.7-10.74-9.7Z"/>
  <path class="cls-3" d="M2108.61,702.84c-5.82,0-10.74,4.44-10.74,9.7v125.42c-18.72-22.04-41.36-48.08-61.5-71.22-20.74-23.85-40.34-46.37-51.68-59.98-2.23-2.82-5.32-3.92-11.04-3.92s-10.39,4.53-10.39,9.7v151.62c0,5.08,5.12,9.7,10.74,9.7,6.02,0,10.74-4.26,10.74-9.7v-125.48c9.99,11.58,21.93,25.3,34.5,39.72,27.08,31.09,57.78,66.32,78.67,91.55,2.14,2.71,5.55,3.92,11.04,3.92s10.39-4.35,10.39-9.7v-151.62c0-5.44-4.72-9.7-10.74-9.7Z"/>
  <path class="cls-3" d="M2319.7,702.84h-148.1c-5.82,0-10.74,4.44-10.74,9.7s5.12,9.7,10.74,9.7h62.62v141.91c0,5.08,5.12,9.7,10.74,9.7,6.02,0,10.74-4.26,10.74-9.7v-141.91h64.01c5.82,0,10.74-4.44,10.74-9.7s-4.72-9.7-10.74-9.7Z"/>
  <path class="cls-3" d="M2479.22,854.46h-85.81v-62.19h70.23c5.82,0,10.74-4.44,10.74-9.7s-4.72-9.7-10.74-9.7h-70.23v-50.62h85.11c5.82,0,10.74-4.44,10.74-9.7s-4.72-9.7-10.74-9.7h-96.89c-5.26,0-9.7,4.44-9.7,9.7v151.62c0,5.08,5.12,9.7,10.74,9.7h96.54c5.82,0,10.74-4.44,10.74-9.7s-4.72-9.7-10.74-9.7Z"/>
  <path class="cls-3" d="M2677.31,857.88l-47.36-49.96c25.3-7.53,40.3-26.27,40.3-50.67,0-15.42-6.59-29.28-18.55-39.03-12.34-10.06-29.5-15.37-49.63-15.37h-50.87c-6.02,0-10.74,4.26-10.74,9.7v151.62c0,5.08,5.12,9.7,10.74,9.7,6.02,0,10.74-4.26,10.74-9.7v-52.51h43.32l55.76,58.72c2.05,2.22,5.03,3.49,8.18,3.49,6.15,0,10.74-5.12,10.74-9.7,0-2.45-.96-4.74-2.63-6.28ZM2648.77,757.25c0,9.99-4.07,18.56-11.76,24.78-8.28,6.69-20.36,10.23-34.94,10.23h-40.13v-70h40.13c27.93,0,46.7,14.07,46.7,35Z"/>
</svg>