<?xml version="1.0" encoding="UTF-8"?>
<svg xmlns="http://www.w3.org/2000/svg" width="48.0in" height="50.0in" viewBox="0 0 48.0 50.0">
<title>window-decal-services-fullcolor</title>

<g transform="translate(4.78,13.65) scale(0.068000)"><circle cx="50" cy="50" r="51" fill="#FFFFFF"/><circle cx="50.000" cy="50.000" r="47.400" fill="none" stroke="#3e404c" stroke-width="5.200"/><g transform="translate(20.0000,20.0000) scale(2.500000)"><path d="M9 5a3 3 0 0 1 3 -3a3 3 0 0 1 3 3v5a3 3 0 0 1 -3 3a3 3 0 0 1 -3 -3l0 -5" fill="none" stroke="#1e698d" stroke-width="2.000" stroke-linecap="round" stroke-linejoin="round"/><path d="M5 10a7 7 0 0 0 14 0" fill="none" stroke="#3e404c" stroke-width="2.000" stroke-linecap="round" stroke-linejoin="round"/><path d="M8 21l8 0" fill="none" stroke="#3e404c" stroke-width="2.000" stroke-linecap="round" stroke-linejoin="round"/><path d="M12 17l0 4" fill="none" stroke="#3e404c" stroke-width="2.000" stroke-linecap="round" stroke-linejoin="round"/></g></g><g transform="translate(5.39,22.15) scale(0.00182)"><path d="M634.0 -699 369.0 0H289.0L24.0 -699H100.0L329.0 -76L560.0 -699Z M757.0 -350Q757.0 -453 802.5 -534.5Q848.0 -616 927.0 -661.5Q1006.0 -707 1103.0 -707Q1201.0 -707 1280.0 -661.5Q1359.0 -616 1404.0 -534.5Q1449.0 -453 1449.0 -350Q1449.0 -247 1404.0 -165.5Q1359.0 -84 1280.0 -38.5Q1201.0 7 1103.0 7Q1006.0 7 927.0 -38.5Q848.0 -84 802.5 -165.5Q757.0 -247 757.0 -350ZM1377.0 -350Q1377.0 -439 1341.0 -506.0Q1305.0 -573 1243.0 -609.0Q1181.0 -645 1103.0 -645Q1025.0 -645 963.0 -609.0Q901.0 -573 865.0 -506.0Q829.0 -439 829.0 -350Q829.0 -261 865.0 -193.5Q901.0 -126 963.0 -90.0Q1025.0 -54 1103.0 -54Q1181.0 -54 1243.0 -90.0Q1305.0 -126 1341.0 -193.5Q1377.0 -261 1377.0 -350Z M1697.0 -699V0H1627.0V-699Z M2216.0 -707Q2333.0 -707 2416.5 -651.5Q2500.0 -596 2538.0 -495H2456.0Q2426.0 -566 2364.5 -606.0Q2303.0 -646 2216.0 -646Q2139.0 -646 2077.5 -610.0Q2016.0 -574 1981.0 -506.5Q1946.0 -439 1946.0 -350Q1946.0 -261 1981.0 -194.0Q2016.0 -127 2077.5 -91.0Q2139.0 -55 2216.0 -55Q2303.0 -55 2364.5 -94.5Q2426.0 -134 2456.0 -204H2538.0Q2500.0 -104 2416.0 -49.0Q2332.0 6 2216.0 6Q2120.0 6 2042.0 -39.5Q1964.0 -85 1919.0 -166.0Q1874.0 -247 1874.0 -350Q1874.0 -453 1919.0 -534.5Q1964.0 -616 2042.0 -661.5Q2120.0 -707 2216.0 -707Z M2797.0 -642V-381H3062.0V-323H2797.0V-58H3092.0V0H2727.0V-700H3092.0V-642Z" fill="#FFFFFF"/></g><g transform="translate(19.78,13.65) scale(0.068000)"><circle cx="50" cy="50" r="51" fill="#FFFFFF"/><circle cx="50.000" cy="50.000" r="47.400" fill="none" stroke="#3e404c" stroke-width="5.200"/><g transform="translate(20.0000,20.0000) scale(2.500000)"><path d="M3 7a2 2 0 0 1 2 -2h14a2 2 0 0 1 2 2v10a2 2 0 0 1 -2 2h-14a2 2 0 0 1 -2 -2v-10" fill="none" stroke="#3e404c" stroke-width="2.000" stroke-linecap="round" stroke-linejoin="round"/><path d="M9 19v-6" fill="none" stroke="#1e698d" stroke-width="2.000" stroke-linecap="round" stroke-linejoin="round"/><path d="M8 5v8h2v-8" fill="none" stroke="#3e404c" stroke-width="2.000" stroke-linecap="round" stroke-linejoin="round"/><path d="M15 19v-6" fill="none" stroke="#3e404c" stroke-width="2.000" stroke-linecap="round" stroke-linejoin="round"/><path d="M14 5v8h2v-8" fill="none" stroke="#3e404c" stroke-width="2.000" stroke-linecap="round" stroke-linejoin="round"/></g></g><g transform="translate(20.46,22.15) scale(0.00182)"><path d="M291.0 -298H150.0V0H80.0V-699H291.0Q408.0 -699 467.5 -644.0Q527.0 -589 527.0 -498Q527.0 -408 468.0 -353.0Q409.0 -298 291.0 -298ZM455.0 -498Q455.0 -568 416.0 -604.0Q377.0 -640 291.0 -640H150.0V-358H291.0Q455.0 -358 455.0 -498Z M764.0 -699V0H694.0V-699Z M1378.0 -166H1060.0L999.0 0H925.0L1180.0 -690H1259.0L1513.0 0H1439.0ZM1357.0 -224 1219.0 -602 1081.0 -224Z M2202.0 0H2132.0L1745.0 -588V0H1675.0V-699H1745.0L2132.0 -112V-699H2202.0Z M2379.0 -350Q2379.0 -453 2424.5 -534.5Q2470.0 -616 2549.0 -661.5Q2628.0 -707 2725.0 -707Q2823.0 -707 2902.0 -661.5Q2981.0 -616 3026.0 -534.5Q3071.0 -453 3071.0 -350Q3071.0 -247 3026.0 -165.5Q2981.0 -84 2902.0 -38.5Q2823.0 7 2725.0 7Q2628.0 7 2549.0 -38.5Q2470.0 -84 2424.5 -165.5Q2379.0 -247 2379.0 -350ZM2999.0 -350Q2999.0 -439 2963.0 -506.0Q2927.0 -573 2865.0 -609.0Q2803.0 -645 2725.0 -645Q2647.0 -645 2585.0 -609.0Q2523.0 -573 2487.0 -506.0Q2451.0 -439 2451.0 -350Q2451.0 -261 2487.0 -193.5Q2523.0 -126 2585.0 -90.0Q2647.0 -54 2725.0 -54Q2803.0 -54 2865.0 -90.0Q2927.0 -126 2963.0 -193.5Q2999.0 -261 2999.0 -350Z" fill="#FFFFFF"/></g><g transform="translate(34.78,13.65) scale(0.068000)"><circle cx="50" cy="50" r="51" fill="#FFFFFF"/><circle cx="50.000" cy="50.000" r="47.400" fill="none" stroke="#3e404c" stroke-width="5.200"/><g transform="translate(20.0000,80.0000) scale(0.062500)"><path d="M773-676q13.6 0 22.8-10 9.2-10 9.2-22 0-13.6-9.2-22.8-9.2-9.2-22.8-9.2-13.6 0-22.8 9.2-9.2 9.2-9.2 22.8 0 12 9.2 22t22.8 10Zm-172 0q13.6 0 22.8-10 9.2-10 9.2-22 0-13.6-9.2-22.8-9.2-9.2-22.8-9.2-13.6 0-22.8 9.2-9.2 9.2-9.2 22.8 0 12 9.2 22t22.8 10Zm-22 146h214q0-33-33-51.5T686-600q-41 0-74 18.5T579-530ZM274-81q-97.5 0-165.75-70T40-315v-267h468v267q0 94-68.25 164T274-81Zm.16-60Q346-141 397-193.5T448-315v-207H100v207q0 69 51.16 121.5t123 52.5ZM686-379q-34 0-66-8.5T559-412v-67q26 15 58.5 27.5T686-439q71.78 0 122.89-48T860-604v-216H509v189h-60v-249h471v276q0 93-68.25 159T686-379Zm-497-7q13.6 0 22.8-9.2 9.2-9.2 9.2-22.8 0-13.6-9.2-22.8-9.2-9.2-22.8-9.2-13.6 0-22.8 9.2-9.2 9.2-9.2 22.8 0 13.6 9.2 22.8 9.2 9.2 22.8 9.2Zm173 0q13.6 0 22.8-9.2 9.2-9.2 9.2-22.8 0-13.6-9.2-22.8-9.2-9.2-22.8-9.2-13.6 0-22.8 9.2-9.2 9.2-9.2 22.8 0 13.6 9.2 22.8 9.2 9.2 22.8 9.2Zm-85 155q41 0 74-18.5t33-51.5H170q0 33 33 51.5t74 18.5Zm-2-105Zm410-289Z" fill="#3e404c"/></g></g><g transform="translate(33.07,22.15) scale(0.00182)"><path d="M390.0 -707Q507.0 -707 590.5 -651.5Q674.0 -596 712.0 -495H630.0Q600.0 -566 538.5 -606.0Q477.0 -646 390.0 -646Q313.0 -646 251.5 -610.0Q190.0 -574 155.0 -506.5Q120.0 -439 120.0 -350Q120.0 -261 155.0 -194.0Q190.0 -127 251.5 -91.0Q313.0 -55 390.0 -55Q477.0 -55 538.5 -94.5Q600.0 -134 630.0 -204H712.0Q674.0 -104 590.0 -49.0Q506.0 6 390.0 6Q294.0 6 216.0 -39.5Q138.0 -85 93.0 -166.0Q48.0 -247 48.0 -350Q48.0 -453 93.0 -534.5Q138.0 -616 216.0 -661.5Q294.0 -707 390.0 -707Z M869.0 -350Q869.0 -453 914.5 -534.5Q960.0 -616 1039.0 -661.5Q1118.0 -707 1215.0 -707Q1313.0 -707 1392.0 -661.5Q1471.0 -616 1516.0 -534.5Q1561.0 -453 1561.0 -350Q1561.0 -247 1516.0 -165.5Q1471.0 -84 1392.0 -38.5Q1313.0 7 1215.0 7Q1118.0 7 1039.0 -38.5Q960.0 -84 914.5 -165.5Q869.0 -247 869.0 -350ZM1489.0 -350Q1489.0 -439 1453.0 -506.0Q1417.0 -573 1355.0 -609.0Q1293.0 -645 1215.0 -645Q1137.0 -645 1075.0 -609.0Q1013.0 -573 977.0 -506.0Q941.0 -439 941.0 -350Q941.0 -261 977.0 -193.5Q1013.0 -126 1075.0 -90.0Q1137.0 -54 1215.0 -54Q1293.0 -54 1355.0 -90.0Q1417.0 -126 1453.0 -193.5Q1489.0 -261 1489.0 -350Z M2144.0 -166H1826.0L1765.0 0H1691.0L1946.0 -690H2025.0L2279.0 0H2205.0ZM2123.0 -224 1985.0 -602 1847.0 -224Z M2751.0 -707Q2868.0 -707 2951.5 -651.5Q3035.0 -596 3073.0 -495H2991.0Q2961.0 -566 2899.5 -606.0Q2838.0 -646 2751.0 -646Q2674.0 -646 2612.5 -610.0Q2551.0 -574 2516.0 -506.5Q2481.0 -439 2481.0 -350Q2481.0 -261 2516.0 -194.0Q2551.0 -127 2612.5 -91.0Q2674.0 -55 2751.0 -55Q2838.0 -55 2899.5 -94.5Q2961.0 -134 2991.0 -204H3073.0Q3035.0 -104 2951.0 -49.0Q2867.0 6 2751.0 6Q2655.0 6 2577.0 -39.5Q2499.0 -85 2454.0 -166.0Q2409.0 -247 2409.0 -350Q2409.0 -453 2454.0 -534.5Q2499.0 -616 2577.0 -661.5Q2655.0 -707 2751.0 -707Z M3781.0 -699V0H3711.0V-327H3332.0V0H3262.0V-699H3332.0V-385H3711.0V-699Z M4061.0 -699V0H3991.0V-699Z M4797.0 0H4727.0L4340.0 -588V0H4270.0V-699H4340.0L4727.0 -112V-699H4797.0Z M5556.0 -495Q5526.0 -564 5464.5 -603.5Q5403.0 -643 5320.0 -643Q5242.0 -643 5180.0 -607.0Q5118.0 -571 5082.0 -504.5Q5046.0 -438 5046.0 -350Q5046.0 -262 5082.0 -195.0Q5118.0 -128 5180.0 -92.0Q5242.0 -56 5320.0 -56Q5393.0 -56 5451.5 -87.5Q5510.0 -119 5545.5 -177.5Q5581.0 -236 5586.0 -314H5292.0V-371H5660.0V-320Q5655.0 -228 5610.0 -153.5Q5565.0 -79 5489.5 -36.0Q5414.0 7 5320.0 7Q5223.0 7 5144.0 -38.5Q5065.0 -84 5019.5 -165.5Q4974.0 -247 4974.0 -350Q4974.0 -453 5019.5 -534.5Q5065.0 -616 5144.0 -661.5Q5223.0 -707 5320.0 -707Q5432.0 -707 5516.0 -651.0Q5600.0 -595 5638.0 -495Z" fill="#FFFFFF"/></g><g transform="translate(12.28,26.65) scale(0.068000)"><circle cx="50" cy="50" r="51" fill="#FFFFFF"/><circle cx="50.000" cy="50.000" r="47.400" fill="none" stroke="#3e404c" stroke-width="5.200"/><circle cx="24.9764" cy="50.0000" r="6.9764" fill="#1e698d"/><g transform="translate(36.9527,58.2075) scale(0.023450)"><path d="M452.0 0 279.0 -292H150.0V0H80.0V-699H290.0Q407.0 -699 467.5 -643.0Q528.0 -587 528.0 -496Q528.0 -420 484.5 -366.5Q441.0 -313 356.0 -297L536.0 0ZM150.0 -349H291.0Q373.0 -349 414.5 -389.0Q456.0 -429 456.0 -496Q456.0 -565 416.0 -602.5Q376.0 -640 290.0 -640H150.0Z M757.0 -642V-381H1022.0V-323H757.0V-58H1052.0V0H687.0V-700H1052.0V-642Z M1520.0 -707Q1637.0 -707 1720.5 -651.5Q1804.0 -596 1842.0 -495H1760.0Q1730.0 -566 1668.5 -606.0Q1607.0 -646 1520.0 -646Q1443.0 -646 1381.5 -610.0Q1320.0 -574 1285.0 -506.5Q1250.0 -439 1250.0 -350Q1250.0 -261 1285.0 -194.0Q1320.0 -127 1381.5 -91.0Q1443.0 -55 1520.0 -55Q1607.0 -55 1668.5 -94.5Q1730.0 -134 1760.0 -204H1842.0Q1804.0 -104 1720.0 -49.0Q1636.0 6 1520.0 6Q1424.0 6 1346.0 -39.5Q1268.0 -85 1223.0 -166.0Q1178.0 -247 1178.0 -350Q1178.0 -453 1223.0 -534.5Q1268.0 -616 1346.0 -661.5Q1424.0 -707 1520.0 -707Z" fill="#3e404c"/></g></g><g transform="translate(9.68,35.15) scale(0.00182)"><path d="M291.0 -298H150.0V0H80.0V-699H291.0Q408.0 -699 467.5 -644.0Q527.0 -589 527.0 -498Q527.0 -408 468.0 -353.0Q409.0 -298 291.0 -298ZM455.0 -498Q455.0 -568 416.0 -604.0Q377.0 -640 291.0 -640H150.0V-358H291.0Q455.0 -358 455.0 -498Z M1066.0 0 893.0 -292H764.0V0H694.0V-699H904.0Q1021.0 -699 1081.5 -643.0Q1142.0 -587 1142.0 -496Q1142.0 -420 1098.5 -366.5Q1055.0 -313 970.0 -297L1150.0 0ZM764.0 -349H905.0Q987.0 -349 1028.5 -389.0Q1070.0 -429 1070.0 -496Q1070.0 -565 1030.0 -602.5Q990.0 -640 904.0 -640H764.0Z M1299.0 -350Q1299.0 -453 1344.5 -534.5Q1390.0 -616 1469.0 -661.5Q1548.0 -707 1645.0 -707Q1743.0 -707 1822.0 -661.5Q1901.0 -616 1946.0 -534.5Q1991.0 -453 1991.0 -350Q1991.0 -247 1946.0 -165.5Q1901.0 -84 1822.0 -38.5Q1743.0 7 1645.0 7Q1548.0 7 1469.0 -38.5Q1390.0 -84 1344.5 -165.5Q1299.0 -247 1299.0 -350ZM1919.0 -350Q1919.0 -439 1883.0 -506.0Q1847.0 -573 1785.0 -609.0Q1723.0 -645 1645.0 -645Q1567.0 -645 1505.0 -609.0Q1443.0 -573 1407.0 -506.0Q1371.0 -439 1371.0 -350Q1371.0 -261 1407.0 -193.5Q1443.0 -126 1505.0 -90.0Q1567.0 -54 1645.0 -54Q1723.0 -54 1785.0 -90.0Q1847.0 -126 1883.0 -193.5Q1919.0 -261 1919.0 -350Z M2746.0 -348Q2746.0 -240 2702.0 -161.5Q2658.0 -83 2575.0 -41.5Q2492.0 0 2376.0 0H2169.0V-699H2376.0Q2492.0 -699 2575.0 -657.0Q2658.0 -615 2702.0 -536.0Q2746.0 -457 2746.0 -348ZM2675.0 -348Q2675.0 -486 2598.5 -563.5Q2522.0 -641 2376.0 -641H2239.0V-58H2376.0Q2522.0 -58 2598.5 -134.5Q2675.0 -211 2675.0 -348Z M2992.0 -699V-259Q2992.0 -155 3041.5 -105.0Q3091.0 -55 3177.0 -55Q3263.0 -55 3311.5 -104.5Q3360.0 -154 3360.0 -259V-699H3430.0V-260Q3430.0 -127 3359.5 -60.0Q3289.0 7 3176.0 7Q3063.0 7 2992.5 -60.0Q2922.0 -127 2922.0 -260V-699Z M3946.0 -707Q4063.0 -707 4146.5 -651.5Q4230.0 -596 4268.0 -495H4186.0Q4156.0 -566 4094.5 -606.0Q4033.0 -646 3946.0 -646Q3869.0 -646 3807.5 -610.0Q3746.0 -574 3711.0 -506.5Q3676.0 -439 3676.0 -350Q3676.0 -261 3711.0 -194.0Q3746.0 -127 3807.5 -91.0Q3869.0 -55 3946.0 -55Q4033.0 -55 4094.5 -94.5Q4156.0 -134 4186.0 -204H4268.0Q4230.0 -104 4146.0 -49.0Q4062.0 6 3946.0 6Q3850.0 6 3772.0 -39.5Q3694.0 -85 3649.0 -166.0Q3604.0 -247 3604.0 -350Q3604.0 -453 3649.0 -534.5Q3694.0 -616 3772.0 -661.5Q3850.0 -707 3946.0 -707Z M4866.0 -699V-641H4672.0V0H4602.0V-641H4407.0V-699Z M5097.0 -699V0H5027.0V-699Z M5274.0 -350Q5274.0 -453 5319.5 -534.5Q5365.0 -616 5444.0 -661.5Q5523.0 -707 5620.0 -707Q5718.0 -707 5797.0 -661.5Q5876.0 -616 5921.0 -534.5Q5966.0 -453 5966.0 -350Q5966.0 -247 5921.0 -165.5Q5876.0 -84 5797.0 -38.5Q5718.0 7 5620.0 7Q5523.0 7 5444.0 -38.5Q5365.0 -84 5319.5 -165.5Q5274.0 -247 5274.0 -350ZM5894.0 -350Q5894.0 -439 5858.0 -506.0Q5822.0 -573 5760.0 -609.0Q5698.0 -645 5620.0 -645Q5542.0 -645 5480.0 -609.0Q5418.0 -573 5382.0 -506.0Q5346.0 -439 5346.0 -350Q5346.0 -261 5382.0 -193.5Q5418.0 -126 5480.0 -90.0Q5542.0 -54 5620.0 -54Q5698.0 -54 5760.0 -90.0Q5822.0 -126 5858.0 -193.5Q5894.0 -261 5894.0 -350Z M6671.0 0H6601.0L6214.0 -588V0H6144.0V-699H6214.0L6601.0 -112V-699H6671.0Z" fill="#FFFFFF"/></g><g transform="translate(27.28,26.65) scale(0.068000)"><circle cx="50" cy="50" r="51" fill="#FFFFFF"/><circle cx="50.000" cy="50.000" r="47.400" fill="none" stroke="#3e404c" stroke-width="5.200"/><g transform="translate(20.0000,20.0000) scale(2.500000)"><path d="M5 7h1a2 2 0 0 0 2 -2a1 1 0 0 1 1 -1h6a1 1 0 0 1 1 1a2 2 0 0 0 2 2h1a2 2 0 0 1 2 2v9a2 2 0 0 1 -2 2h-14a2 2 0 0 1 -2 -2v-9a2 2 0 0 1 2 -2" fill="none" stroke="#3e404c" stroke-width="2.000" stroke-linecap="round" stroke-linejoin="round"/><path d="M9 13a3 3 0 1 0 6 0a3 3 0 0 0 -6 0" fill="none" stroke="#1e698d" stroke-width="2.000" stroke-linecap="round" stroke-linejoin="round"/></g></g><g transform="translate(23.80,35.15) scale(0.00182)"><path d="M291.0 -298H150.0V0H80.0V-699H291.0Q408.0 -699 467.5 -644.0Q527.0 -589 527.0 -498Q527.0 -408 468.0 -353.0Q409.0 -298 291.0 -298ZM455.0 -498Q455.0 -568 416.0 -604.0Q377.0 -640 291.0 -640H150.0V-358H291.0Q455.0 -358 455.0 -498Z M1213.0 -699V0H1143.0V-327H764.0V0H694.0V-699H764.0V-385H1143.0V-699Z M1391.0 -350Q1391.0 -453 1436.5 -534.5Q1482.0 -616 1561.0 -661.5Q1640.0 -707 1737.0 -707Q1835.0 -707 1914.0 -661.5Q1993.0 -616 2038.0 -534.5Q2083.0 -453 2083.0 -350Q2083.0 -247 2038.0 -165.5Q1993.0 -84 1914.0 -38.5Q1835.0 7 1737.0 7Q1640.0 7 1561.0 -38.5Q1482.0 -84 1436.5 -165.5Q1391.0 -247 1391.0 -350ZM2011.0 -350Q2011.0 -439 1975.0 -506.0Q1939.0 -573 1877.0 -609.0Q1815.0 -645 1737.0 -645Q1659.0 -645 1597.0 -609.0Q1535.0 -573 1499.0 -506.0Q1463.0 -439 1463.0 -350Q1463.0 -261 1499.0 -193.5Q1535.0 -126 1597.0 -90.0Q1659.0 -54 1737.0 -54Q1815.0 -54 1877.0 -90.0Q1939.0 -126 1975.0 -193.5Q2011.0 -261 2011.0 -350Z M2670.0 -699V-641H2476.0V0H2406.0V-641H2211.0V-699Z M2799.0 -350Q2799.0 -453 2844.5 -534.5Q2890.0 -616 2969.0 -661.5Q3048.0 -707 3145.0 -707Q3243.0 -707 3322.0 -661.5Q3401.0 -616 3446.0 -534.5Q3491.0 -453 3491.0 -350Q3491.0 -247 3446.0 -165.5Q3401.0 -84 3322.0 -38.5Q3243.0 7 3145.0 7Q3048.0 7 2969.0 -38.5Q2890.0 -84 2844.5 -165.5Q2799.0 -247 2799.0 -350ZM3419.0 -350Q3419.0 -439 3383.0 -506.0Q3347.0 -573 3285.0 -609.0Q3223.0 -645 3145.0 -645Q3067.0 -645 3005.0 -609.0Q2943.0 -573 2907.0 -506.0Q2871.0 -439 2871.0 -350Q2871.0 -261 2907.0 -193.5Q2943.0 -126 3005.0 -90.0Q3067.0 -54 3145.0 -54Q3223.0 -54 3285.0 -90.0Q3347.0 -126 3383.0 -193.5Q3419.0 -261 3419.0 -350Z M4219.0 -495Q4189.0 -564 4127.5 -603.5Q4066.0 -643 3983.0 -643Q3905.0 -643 3843.0 -607.0Q3781.0 -571 3745.0 -504.5Q3709.0 -438 3709.0 -350Q3709.0 -262 3745.0 -195.0Q3781.0 -128 3843.0 -92.0Q3905.0 -56 3983.0 -56Q4056.0 -56 4114.5 -87.5Q4173.0 -119 4208.5 -177.5Q4244.0 -236 4249.0 -314H3955.0V-371H4323.0V-320Q4318.0 -228 4273.0 -153.5Q4228.0 -79 4152.5 -36.0Q4077.0 7 3983.0 7Q3886.0 7 3807.0 -38.5Q3728.0 -84 3682.5 -165.5Q3637.0 -247 3637.0 -350Q3637.0 -453 3682.5 -534.5Q3728.0 -616 3807.0 -661.5Q3886.0 -707 3983.0 -707Q4095.0 -707 4179.0 -651.0Q4263.0 -595 4301.0 -495Z M4873.0 0 4700.0 -292H4571.0V0H4501.0V-699H4711.0Q4828.0 -699 4888.5 -643.0Q4949.0 -587 4949.0 -496Q4949.0 -420 4905.5 -366.5Q4862.0 -313 4777.0 -297L4957.0 0ZM4571.0 -349H4712.0Q4794.0 -349 4835.5 -389.0Q4877.0 -429 4877.0 -496Q4877.0 -565 4837.0 -602.5Q4797.0 -640 4711.0 -640H4571.0Z M5543.0 -166H5225.0L5164.0 0H5090.0L5345.0 -690H5424.0L5678.0 0H5604.0ZM5522.0 -224 5384.0 -602 5246.0 -224Z M6051.0 -298H5910.0V0H5840.0V-699H6051.0Q6168.0 -699 6227.5 -644.0Q6287.0 -589 6287.0 -498Q6287.0 -408 6228.0 -353.0Q6169.0 -298 6051.0 -298ZM6215.0 -498Q6215.0 -568 6176.0 -604.0Q6137.0 -640 6051.0 -640H5910.0V-358H6051.0Q6215.0 -358 6215.0 -498Z M6973.0 -699V0H6903.0V-327H6524.0V0H6454.0V-699H6524.0V-385H6903.0V-699Z M7645.0 -699 7421.0 -272V0H7351.0V-272L7125.0 -699H7204.0L7386.0 -336L7567.0 -699Z" fill="#FFFFFF"/></g>
</svg>
