<?xml version="1.0" encoding="UTF-8"?>
<svg xmlns="http://www.w3.org/2000/svg" width="30.5in" height="38.0in" viewBox="0 0 30.5 38.0">
<title>door-decal-with-website</title>

<g transform="translate(7.7400,8.5760) scale(0.021626)"><path d="M334.78,295.52c101.89-13.84,106.78,144.18,5.79,136.86-80.27-5.82-82.79-126.41-5.79-136.86Z" fill="#fbf8f5"/><path d="M314.64,1.21c295.23-23.56,486.95,303.41,314.85,547.37-157.86,223.77-500.75,184.35-603.57-68.41C-61.56,265.14,81.8,19.79,314.64,1.21ZM585.93,544.36c146.54-180.36,54.54-449.47-172.1-498.38C187.11-2.93-7.82,195.92,45.91,421.62c24.85,104.36,104.35,187.75,205.92,220.57l10.43-85.24-128.28-137.01c-8.14-14.23,8.59-31,23.35-24.9,0,0,194.25,102.73,194.25,102.73l190.69-102.73c14.97-4.99,26.9,13.67,18.78,26.49l-127.3,135.61,10.92,83.5c54.21-17.73,105.33-52.08,141.25-96.29Z" fill="#fbf8f5"/><path d="M602.8,333.32c-1.62-29.48-8.24-58.16-19.7-85.25-12.89-30.47-31.35-57.85-54.87-81.36-23.52-23.52-50.89-41.98-81.36-54.86-31.53-13.33-65.04-20.1-99.61-20.1s-68.08,6.76-99.61,20.1c-30.47,12.89-57.85,31.35-81.36,54.86-23.52,23.52-41.98,50.89-54.86,81.36-11.46,27.09-18.09,55.77-19.7,85.25-.29,5.21,1.61,10.37,5.2,14.16,3.6,3.8,8.66,5.98,13.89,5.98,10.14,0,18.52-7.94,19.08-18.08,1.38-25.05,7.01-49.42,16.74-72.41,10.96-25.92,26.67-49.21,46.69-69.23,20.02-20.02,43.31-35.73,69.23-46.69,26.79-11.33,55.29-17.08,84.72-17.08s57.93,5.75,84.72,17.08c25.92,10.96,49.21,26.67,69.23,46.69s35.73,43.31,46.69,69.23c9.73,23,15.36,47.36,16.74,72.41.56,10.14,8.94,18.09,19.08,18.09,5.23,0,10.29-2.18,13.89-5.98,3.59-3.79,5.48-8.95,5.2-14.16Z" fill="#fbf8f5"/><path d="M506.8,335.2c-1.02-18.52-5.18-36.55-12.39-53.58-8.1-19.15-19.7-36.35-34.47-51.12-14.77-14.77-31.98-26.37-51.12-34.47-19.81-8.38-40.87-12.63-62.59-12.63s-42.78,4.25-62.59,12.63c-19.15,8.1-36.35,19.7-51.12,34.47-14.77,14.77-26.37,31.98-34.47,51.12-7.2,17.03-11.37,35.06-12.39,53.58-.28,5.18,1.6,10.32,5.17,14.09,3.57,3.78,8.61,5.94,13.81,5.94,10.09,0,18.42-7.9,18.97-17.97.78-14.13,3.95-27.87,9.44-40.83,6.18-14.62,15.05-27.76,26.34-39.05,11.3-11.3,24.43-20.16,39.05-26.34,15.1-6.39,31.18-9.63,47.79-9.63s32.68,3.24,47.79,9.63c14.62,6.18,27.76,15.04,39.05,26.34,11.29,11.29,20.16,24.43,26.34,39.05,5.48,12.97,8.66,26.71,9.44,40.83.55,10.08,8.89,17.98,18.97,17.98,5.2,0,10.23-2.17,13.81-5.94,3.57-3.77,5.46-8.91,5.17-14.09Z" fill="#fbf8f5"/></g><g transform="translate(2.7927,27.7650) scale(0.002571)"><path d="M489.0 -699V-641H295.0V0H225.0V-641H30.0V-699Z M1149.0 -699V0H1079.0V-327H700.0V0H630.0V-699H700.0V-385H1079.0V-699Z M1409.0 -642V-381H1674.0V-323H1409.0V-58H1704.0V0H1339.0V-700H1704.0V-642Z M2152.0 -180H2226.0Q2231.0 -129 2271.0 -90.5Q2311.0 -52 2388.0 -52Q2459.0 -52 2500.5 -88.5Q2542.0 -125 2542.0 -181Q2542.0 -226 2519.0 -253.5Q2496.0 -281 2462.0 -294.5Q2428.0 -308 2368.0 -324Q2298.0 -343 2257.0 -361.0Q2216.0 -379 2187.0 -417.0Q2158.0 -455 2158.0 -520Q2158.0 -574 2186.0 -616.5Q2214.0 -659 2265.0 -683.0Q2316.0 -707 2382.0 -707Q2479.0 -707 2538.5 -659.5Q2598.0 -612 2607.0 -537H2531.0Q2524.0 -580 2484.0 -613.5Q2444.0 -647 2376.0 -647Q2313.0 -647 2271.0 -613.5Q2229.0 -580 2229.0 -522Q2229.0 -478 2252.0 -451.0Q2275.0 -424 2309.5 -410.0Q2344.0 -396 2403.0 -380Q2471.0 -361 2513.0 -342.5Q2555.0 -324 2584.0 -286.0Q2613.0 -248 2613.0 -184Q2613.0 -135 2587.0 -91.0Q2561.0 -47 2510.0 -20.0Q2459.0 7 2388.0 7Q2319.0 7 2266.5 -17.0Q2214.0 -41 2184.0 -84.0Q2154.0 -127 2152.0 -180Z M2848.0 -699V0H2778.0V-699Z M3564.0 0H3494.0L3107.0 -588V0H3037.0V-699H3107.0L3494.0 -112V-699H3564.0Z M4303.0 -495Q4273.0 -564 4211.5 -603.5Q4150.0 -643 4067.0 -643Q3989.0 -643 3927.0 -607.0Q3865.0 -571 3829.0 -504.5Q3793.0 -438 3793.0 -350Q3793.0 -262 3829.0 -195.0Q3865.0 -128 3927.0 -92.0Q3989.0 -56 4067.0 -56Q4140.0 -56 4198.5 -87.5Q4257.0 -119 4292.5 -177.5Q4328.0 -236 4333.0 -314H4039.0V-371H4407.0V-320Q4402.0 -228 4357.0 -153.5Q4312.0 -79 4236.5 -36.0Q4161.0 7 4067.0 7Q3970.0 7 3891.0 -38.5Q3812.0 -84 3766.5 -165.5Q3721.0 -247 3721.0 -350Q3721.0 -453 3766.5 -534.5Q3812.0 -616 3891.0 -661.5Q3970.0 -707 4067.0 -707Q4179.0 -707 4263.0 -651.0Q4347.0 -595 4385.0 -495Z M4635.0 -642V-381H4900.0V-323H4635.0V-58H4930.0V0H4565.0V-700H4930.0V-642Z M5470.0 0 5297.0 -292H5168.0V0H5098.0V-699H5308.0Q5425.0 -699 5485.5 -643.0Q5546.0 -587 5546.0 -496Q5546.0 -420 5502.5 -366.5Q5459.0 -313 5374.0 -297L5554.0 0ZM5168.0 -349H5309.0Q5391.0 -349 5432.5 -389.0Q5474.0 -429 5474.0 -496Q5474.0 -565 5434.0 -602.5Q5394.0 -640 5308.0 -640H5168.0Z M6329.0 -707Q6446.0 -707 6529.5 -651.5Q6613.0 -596 6651.0 -495H6569.0Q6539.0 -566 6477.5 -606.0Q6416.0 -646 6329.0 -646Q6252.0 -646 6190.5 -610.0Q6129.0 -574 6094.0 -506.5Q6059.0 -439 6059.0 -350Q6059.0 -261 6094.0 -194.0Q6129.0 -127 6190.5 -91.0Q6252.0 -55 6329.0 -55Q6416.0 -55 6477.5 -94.5Q6539.0 -134 6569.0 -204H6651.0Q6613.0 -104 6529.0 -49.0Q6445.0 6 6329.0 6Q6233.0 6 6155.0 -39.5Q6077.0 -85 6032.0 -166.0Q5987.0 -247 5987.0 -350Q5987.0 -453 6032.0 -534.5Q6077.0 -616 6155.0 -661.5Q6233.0 -707 6329.0 -707Z M6890.0 -642V-381H7155.0V-323H6890.0V-58H7185.0V0H6820.0V-700H7185.0V-642Z M7880.0 0H7810.0L7423.0 -588V0H7353.0V-699H7423.0L7810.0 -112V-699H7880.0Z M8478.0 -699V-641H8284.0V0H8214.0V-641H8019.0V-699Z M8689.0 -642V-381H8954.0V-323H8689.0V-58H8984.0V0H8619.0V-700H8984.0V-642Z M9524.0 0 9351.0 -292H9222.0V0H9152.0V-699H9362.0Q9479.0 -699 9539.5 -643.0Q9600.0 -587 9600.0 -496Q9600.0 -420 9556.5 -366.5Q9513.0 -313 9428.0 -297L9608.0 0ZM9222.0 -349H9363.0Q9445.0 -349 9486.5 -389.0Q9528.0 -429 9528.0 -496Q9528.0 -565 9488.0 -602.5Q9448.0 -640 9362.0 -640H9222.0Z" fill="#fbf8f5"/></g><g transform="translate(11.0414,28.9150) scale(0.000714)"><path d="M489.0 -699V-641H295.0V0H225.0V-641H30.0V-699Z M1149.0 -699V0H1079.0V-327H700.0V0H630.0V-699H700.0V-385H1079.0V-699Z M1409.0 -642V-381H1674.0V-323H1409.0V-58H1704.0V0H1339.0V-700H1704.0V-642Z M1848.0 -180H1922.0Q1927.0 -129 1967.0 -90.5Q2007.0 -52 2084.0 -52Q2155.0 -52 2196.5 -88.5Q2238.0 -125 2238.0 -181Q2238.0 -226 2215.0 -253.5Q2192.0 -281 2158.0 -294.5Q2124.0 -308 2064.0 -324Q1994.0 -343 1953.0 -361.0Q1912.0 -379 1883.0 -417.0Q1854.0 -455 1854.0 -520Q1854.0 -574 1882.0 -616.5Q1910.0 -659 1961.0 -683.0Q2012.0 -707 2078.0 -707Q2175.0 -707 2234.5 -659.5Q2294.0 -612 2303.0 -537H2227.0Q2220.0 -580 2180.0 -613.5Q2140.0 -647 2072.0 -647Q2009.0 -647 1967.0 -613.5Q1925.0 -580 1925.0 -522Q1925.0 -478 1948.0 -451.0Q1971.0 -424 2005.5 -410.0Q2040.0 -396 2099.0 -380Q2167.0 -361 2209.0 -342.5Q2251.0 -324 2280.0 -286.0Q2309.0 -248 2309.0 -184Q2309.0 -135 2283.0 -91.0Q2257.0 -47 2206.0 -20.0Q2155.0 7 2084.0 7Q2015.0 7 1962.5 -17.0Q1910.0 -41 1880.0 -84.0Q1850.0 -127 1848.0 -180Z M2544.0 -699V0H2474.0V-699Z M3260.0 0H3190.0L2803.0 -588V0H2733.0V-699H2803.0L3190.0 -112V-699H3260.0Z M3999.0 -495Q3969.0 -564 3907.5 -603.5Q3846.0 -643 3763.0 -643Q3685.0 -643 3623.0 -607.0Q3561.0 -571 3525.0 -504.5Q3489.0 -438 3489.0 -350Q3489.0 -262 3525.0 -195.0Q3561.0 -128 3623.0 -92.0Q3685.0 -56 3763.0 -56Q3836.0 -56 3894.5 -87.5Q3953.0 -119 3988.5 -177.5Q4024.0 -236 4029.0 -314H3735.0V-371H4103.0V-320Q4098.0 -228 4053.0 -153.5Q4008.0 -79 3932.5 -36.0Q3857.0 7 3763.0 7Q3666.0 7 3587.0 -38.5Q3508.0 -84 3462.5 -165.5Q3417.0 -247 3417.0 -350Q3417.0 -453 3462.5 -534.5Q3508.0 -616 3587.0 -661.5Q3666.0 -707 3763.0 -707Q3875.0 -707 3959.0 -651.0Q4043.0 -595 4081.0 -495Z M4331.0 -642V-381H4596.0V-323H4331.0V-58H4626.0V0H4261.0V-700H4626.0V-642Z M5166.0 0 4993.0 -292H4864.0V0H4794.0V-699H5004.0Q5121.0 -699 5181.5 -643.0Q5242.0 -587 5242.0 -496Q5242.0 -420 5198.5 -366.5Q5155.0 -313 5070.0 -297L5250.0 0ZM4864.0 -349H5005.0Q5087.0 -349 5128.5 -389.0Q5170.0 -429 5170.0 -496Q5170.0 -565 5130.0 -602.5Q5090.0 -640 5004.0 -640H4864.0Z M5721.0 -707Q5838.0 -707 5921.5 -651.5Q6005.0 -596 6043.0 -495H5961.0Q5931.0 -566 5869.5 -606.0Q5808.0 -646 5721.0 -646Q5644.0 -646 5582.5 -610.0Q5521.0 -574 5486.0 -506.5Q5451.0 -439 5451.0 -350Q5451.0 -261 5486.0 -194.0Q5521.0 -127 5582.5 -91.0Q5644.0 -55 5721.0 -55Q5808.0 -55 5869.5 -94.5Q5931.0 -134 5961.0 -204H6043.0Q6005.0 -104 5921.0 -49.0Q5837.0 6 5721.0 6Q5625.0 6 5547.0 -39.5Q5469.0 -85 5424.0 -166.0Q5379.0 -247 5379.0 -350Q5379.0 -453 5424.0 -534.5Q5469.0 -616 5547.0 -661.5Q5625.0 -707 5721.0 -707Z M6282.0 -642V-381H6547.0V-323H6282.0V-58H6577.0V0H6212.0V-700H6577.0V-642Z M7272.0 0H7202.0L6815.0 -588V0H6745.0V-699H6815.0L7202.0 -112V-699H7272.0Z M7870.0 -699V-641H7676.0V0H7606.0V-641H7411.0V-699Z M8081.0 -642V-381H8346.0V-323H8081.0V-58H8376.0V0H8011.0V-700H8376.0V-642Z M8916.0 0 8743.0 -292H8614.0V0H8544.0V-699H8754.0Q8871.0 -699 8931.5 -643.0Q8992.0 -587 8992.0 -496Q8992.0 -420 8948.5 -366.5Q8905.0 -313 8820.0 -297L9000.0 0ZM8614.0 -349H8755.0Q8837.0 -349 8878.5 -389.0Q8920.0 -429 8920.0 -496Q8920.0 -565 8880.0 -602.5Q8840.0 -640 8754.0 -640H8614.0Z M9122.0 -47Q9122.0 -69 9136.5 -83.5Q9151.0 -98 9173.0 -98Q9194.0 -98 9208.5 -83.5Q9223.0 -69 9223.0 -47Q9223.0 -25 9208.5 -10.0Q9194.0 5 9173.0 5Q9151.0 5 9136.5 -10.0Q9122.0 -25 9122.0 -47Z M9683.0 -707Q9800.0 -707 9883.5 -651.5Q9967.0 -596 10005.0 -495H9923.0Q9893.0 -566 9831.5 -606.0Q9770.0 -646 9683.0 -646Q9606.0 -646 9544.5 -610.0Q9483.0 -574 9448.0 -506.5Q9413.0 -439 9413.0 -350Q9413.0 -261 9448.0 -194.0Q9483.0 -127 9544.5 -91.0Q9606.0 -55 9683.0 -55Q9770.0 -55 9831.5 -94.5Q9893.0 -134 9923.0 -204H10005.0Q9967.0 -104 9883.0 -49.0Q9799.0 6 9683.0 6Q9587.0 6 9509.0 -39.5Q9431.0 -85 9386.0 -166.0Q9341.0 -247 9341.0 -350Q9341.0 -453 9386.0 -534.5Q9431.0 -616 9509.0 -661.5Q9587.0 -707 9683.0 -707Z M10142.0 -350Q10142.0 -453 10187.5 -534.5Q10233.0 -616 10312.0 -661.5Q10391.0 -707 10488.0 -707Q10586.0 -707 10665.0 -661.5Q10744.0 -616 10789.0 -534.5Q10834.0 -453 10834.0 -350Q10834.0 -247 10789.0 -165.5Q10744.0 -84 10665.0 -38.5Q10586.0 7 10488.0 7Q10391.0 7 10312.0 -38.5Q10233.0 -84 10187.5 -165.5Q10142.0 -247 10142.0 -350ZM10762.0 -350Q10762.0 -439 10726.0 -506.0Q10690.0 -573 10628.0 -609.0Q10566.0 -645 10488.0 -645Q10410.0 -645 10348.0 -609.0Q10286.0 -573 10250.0 -506.0Q10214.0 -439 10214.0 -350Q10214.0 -261 10250.0 -193.5Q10286.0 -126 10348.0 -90.0Q10410.0 -54 10488.0 -54Q10566.0 -54 10628.0 -90.0Q10690.0 -126 10726.0 -193.5Q10762.0 -261 10762.0 -350Z M11675.0 -690V0H11605.0V-551L11359.0 0H11308.0L11062.0 -549V0H10992.0V-690H11066.0L11333.0 -92L11600.0 -690Z" fill="#fbf8f5"/></g>
</svg>
